<svg  xmlns="http://www.w3.org/2000/svg" width="260" height="44.8" viewBox="0 0 260 44.8">
  <polygon points="40.4 1.2 23.4 43.9 16.8 43.9 0 1.2 8.9 1.2 20.2 31.2 31.6 1.2 40.4 1.2"/>
  <path d="M65.5,21c-1.2-2.2-2.9-4-5.1-5.2-2.2-1.3-4.7-1.9-7.5-1.9s-5.5.7-7.8,2c-2.4,1.4-4.2,3.2-5.6,5.5-1.4,2.3-2,4.9-2,7.8s.7,5.6,2.1,7.9c1.4,2.3,3.3,4.1,5.7,5.4,2.4,1.3,5.1,2,8.2,2s4.6-.4,6.7-1.3c2-.8,3.8-2.1,5.2-3.8l-4.7-4.7c-.9,1-1.9,1.8-3.1,2.3-1.2.5-2.6.8-4.1.8s-3.1-.3-4.4-1.1c-1.3-.7-2.2-1.7-2.9-3-.3-.5-.5-1.1-.6-1.7h21.4c.2-.7.3-1.4.4-1.9,0-.5,0-1.1,0-1.6,0-2.8-.6-5.3-1.8-7.5ZM45.5,26.1c.1-.6.3-1.1.6-1.5.6-1.3,1.5-2.3,2.7-3,1.2-.7,2.6-1.1,4.1-1.1s2.8.3,3.8.9c1,.6,1.8,1.5,2.4,2.7.3.6.5,1.2.6,1.9h-14.2Z" />
  <path d="M100,25.3v18.6h-8v-16.8c0-1.7-.5-3.1-1.6-4.2-1.1-1.1-2.5-1.6-4.3-1.6s-2.1.2-3,.7c-.9.5-1.6,1.2-2.1,2.1-.5.9-.8,1.9-.8,3.1v16.8h-8V0h8v17.3c.7-.7,1.5-1.3,2.4-1.8,1.7-1,3.7-1.5,5.9-1.5s4.2.5,5.9,1.5c1.7,1,3.1,2.3,4,4,1,1.7,1.5,3.7,1.5,5.9Z"/>
  <path d="M114.9,5.3c0,1.3-.4,2.4-1.2,3.2-.8.9-1.9,1.3-3.2,1.3s-2.4-.4-3.2-1.3-1.3-2-1.3-3.2.4-2.3,1.3-3.2c.8-.9,1.9-1.3,3.2-1.3s2.4.4,3.2,1.3c.8.9,1.2,2,1.2,3.2Z"/>
  <rect x="106.4" y="14.6" width="8" height="29.3"/>
  <path d="M166.6,27.2c0,3.4-.6,6.4-1.6,9.2-1.1,2.8-2.5,5.2-4.4,7.3l-8.1-8.1c1.1-1,1.9-2.1,2.5-3.5.6-1.4.9-3,.9-4.9,0-1.6-.2-3.1-.8-4.5-.5-1.4-1.3-2.5-2.3-3.5-1-1-2.2-1.7-3.7-2.3-1.4-.6-3-.8-4.8-.9-1.8,0-3.5.3-4.9.8-1.4.5-2.7,1.3-3.7,2.2-1,1-1.8,2.1-2.3,3.5-.6,1.4-.8,2.8-.9,4.5,0,1.8.3,3.5.8,4.9.6,1.4,1.4,2.7,2.5,3.7l-8.2,8.1c-1.9-2.2-3.3-4.6-4.3-7.2-1-2.7-1.5-5.8-1.5-9.4,0-3.3.6-6.4,1.7-9.2,1.1-2.8,2.7-5.3,4.7-7.5,2-2.1,4.4-3.8,7.2-5,2.7-1.2,5.7-1.8,8.9-1.8,3.2,0,6.2.6,8.9,1.8,2.7,1.2,5,2.9,7,5,2,2.1,3.5,4.6,4.6,7.5,1.1,2.8,1.6,5.9,1.6,9.2Z"/>
  <path d="M202.4,20.9c-1.5-2.3-3.5-4.2-6-5.6-2.6-1.4-5.5-2-8.8-2s-6.2.7-8.8,2-4.6,3.2-6,5.6c-1.5,2.3-2.2,5-2.2,8s.7,5.7,2.2,8.1c1.5,2.4,3.5,4.3,6.1,5.6,2.6,1.3,5.5,2,8.8,2s6.2-.7,8.8-2c2.5-1.4,4.5-3.2,6-5.6,1.5-2.4,2.2-5.1,2.2-8.1s-.8-5.7-2.2-8ZM192,31.7c-.4.8-1,1.4-1.7,1.8-.7.4-1.6.6-2.6.6s-1.8-.2-2.6-.6c-.8-.4-1.3-1-1.8-1.8-.4-.8-.6-1.7-.6-2.7s.2-2,.6-2.8c.4-.8,1-1.4,1.8-1.8s1.6-.7,2.6-.7,1.9.2,2.6.6c.7.4,1.3,1,1.7,1.8.4.8.6,1.7.6,2.8s-.2,2-.6,2.8Z"/>
  <path d="M232.2,30.5c.6,1.2,1,2.7,1,4.7,0,3-1.2,5.3-3.5,7-2.3,1.7-5.5,2.6-9.5,2.6s-3.7-.2-5.6-.7c-1.9-.5-3.6-1.2-5.2-2-1.6-.8-2.9-1.8-4-2.9l6.3-6.4c1,1,2.1,1.7,3.5,2.3,1.4.6,2.8.8,4.3.8s1.2,0,1.6-.3c.4-.2.6-.4.6-.8,0-.6-.3-1-1-1.3-.7-.3-1.5-.5-2.6-.8-1-.2-2.1-.6-3.3-.9-1.2-.4-2.3-.9-3.3-1.6-1.1-.7-1.9-1.6-2.5-2.8-.7-1.2-1-2.7-1-4.6s.5-3.6,1.6-5.1c1.1-1.5,2.6-2.6,4.6-3.5,2-.9,4.2-1.3,6.8-1.3s5.2.5,7.7,1.3c2.5.9,4.4,2.2,5.9,4l-6.3,6.4c-1-1.1-2.1-1.9-3.3-2.3-1.2-.4-2.2-.6-3-.6s-1.3.1-1.6.3c-.3.2-.5.5-.5.8s.3.8,1,1.1c.6.3,1.5.5,2.5.8,1,.2,2.1.6,3.2,1,1.1.4,2.2,1,3.2,1.7,1,.7,1.9,1.7,2.5,2.9Z"/>
  <polygon points="260 14 260 23.8 253.6 23.8 253.6 43.9 241.7 43.9 241.7 23.8 235.3 23.8 235.3 14 241.7 14 241.7 1.8 253.6 1.8 253.6 14 260 14"/>
</svg>