<svg id="Calque_1" data-name="Calque 1" xmlns="http://www.w3.org/2000/svg" width="300" height="300" viewBox="0 0 300 300">
  <defs>
    <style>
      .cls-1 {
        fill: #038737;
      }

      .cls-1, .cls-2 {
        stroke-width: 0px;
      }

      .cls-2 {
        fill: #fff;
      }
    </style>
  </defs>
  <rect class="cls-1" width="300" height="300"/>
  <g>
    <polygon class="cls-2" points="54.86 127.51 36.82 172.81 29.87 172.81 12.01 127.51 21.49 127.51 33.45 159.32 45.53 127.51 54.86 127.51"/>
    <path class="cls-2" d="M81.58,148.54c-1.3-2.33-3.1-4.19-5.41-5.54-2.3-1.35-4.95-2.03-7.95-2.03s-5.83.72-8.32,2.16c-2.5,1.44-4.47,3.38-5.91,5.8-1.44,2.42-2.16,5.19-2.16,8.28s.74,5.93,2.23,8.38c1.48,2.45,3.48,4.38,6.02,5.77,2.54,1.4,5.44,2.09,8.69,2.09,2.54,0,4.9-.44,7.07-1.35,2.17-.9,4-2.23,5.51-4l-4.97-4.96c-.95,1.07-2.06,1.88-3.34,2.42-1.29.53-2.74.8-4.33.8-1.75,0-3.31-.37-4.63-1.12-1.34-.74-2.36-1.83-3.07-3.22-.28-.56-.5-1.15-.67-1.79l22.74-.05c.18-.73.29-1.39.37-1.97.06-.58.09-1.15.09-1.7,0-2.97-.66-5.62-1.97-7.96ZM60.35,153.92c.15-.58.35-1.12.61-1.63.67-1.36,1.63-2.41,2.86-3.17,1.25-.74,2.71-1.12,4.39-1.12,1.58,0,2.93.33,4.03,1,1.1.67,1.93,1.63,2.51,2.86.28.61.5,1.27.66,2.02l-15.05.04Z"/>
    <path class="cls-2" d="M118.16,153.09v19.72h-8.44v-17.86c0-1.84-.58-3.34-1.74-4.51s-2.66-1.74-4.52-1.74c-1.2,0-2.27.25-3.22.77-.95.52-1.69,1.25-2.22,2.2-.54.95-.81,2.04-.81,3.28v17.86h-8.44v-46.59h8.44v18.32c.73-.76,1.59-1.41,2.55-1.96,1.82-1.03,3.91-1.55,6.28-1.55s4.45.52,6.28,1.55c1.82,1.03,3.24,2.45,4.28,4.25s1.55,3.89,1.55,6.25Z"/>
    <path class="cls-2" d="M129.24,136.66c-1.37,0-2.51-.46-3.41-1.39-.9-.92-1.35-2.07-1.35-3.45s.45-2.47,1.35-3.42c.9-.94,2.04-1.42,3.41-1.42s2.57.47,3.45,1.42c.88.95,1.32,2.08,1.32,3.42s-.44,2.52-1.32,3.45c-.88.93-2.03,1.39-3.45,1.39ZM124.99,172.81v-31.13h8.51v31.13h-8.51Z"/>
    <path class="cls-2" d="M141.4,155.01c.02-3.52.62-6.8,1.82-9.82,1.2-3.02,2.87-5.67,5.04-7.93,2.16-2.27,4.69-4.03,7.6-5.28s6.06-1.87,9.45-1.85,6.59.67,9.46,1.95c2.87,1.28,5.36,3.06,7.45,5.32,2.09,2.27,3.72,4.91,4.89,7.92s1.74,6.28,1.72,9.81c-.02,3.56-.59,6.83-1.72,9.79-1.13,2.96-2.69,5.53-4.68,7.71l-8.6-8.61c1.12-1.03,2.01-2.28,2.66-3.76.65-1.48.98-3.21.99-5.18,0-1.72-.26-3.3-.82-4.74s-1.36-2.68-2.43-3.72c-1.07-1.04-2.36-1.85-3.89-2.43-1.52-.59-3.23-.89-5.12-.9s-3.67.27-5.19.84c-1.53.57-2.83,1.37-3.91,2.4-1.08,1.03-1.91,2.26-2.5,3.69-.59,1.44-.89,3.01-.89,4.73,0,1.93.28,3.66.88,5.19.59,1.53,1.47,2.85,2.62,3.98l-8.68,8.6c-1.97-2.29-3.49-4.85-4.57-7.69-1.08-2.84-1.61-6.17-1.59-10Z"/>
    <path class="cls-2" d="M211.23,173.59c-3.48,0-6.59-.72-9.31-2.16-2.73-1.44-4.88-3.43-6.45-5.96-1.57-2.53-2.35-5.39-2.35-8.57s.77-6.02,2.32-8.51,3.68-4.46,6.41-5.9c2.73-1.44,5.83-2.16,9.31-2.16s6.57.72,9.28,2.16,4.84,3.41,6.41,5.9c1.57,2.49,2.35,5.33,2.35,8.51s-.77,6.04-2.32,8.57c-1.55,2.54-3.67,4.52-6.38,5.96-2.71,1.44-5.8,2.16-9.28,2.16ZM211.17,162.5c1.08,0,2.01-.23,2.8-.68s1.41-1.1,1.84-1.93c.43-.84.65-1.81.65-2.93s-.23-2.09-.68-2.93c-.45-.84-1.06-1.48-1.84-1.93s-1.7-.68-2.77-.68-1.94.24-2.74.71c-.79.47-1.42,1.13-1.87,1.97-.45.84-.68,1.81-.68,2.93s.23,2.03.68,2.87c.45.84,1.08,1.48,1.87,1.93s1.71.68,2.74.68Z"/>
    <path class="cls-2" d="M245.78,173.78c-1.98,0-3.95-.26-5.93-.77-1.98-.52-3.81-1.22-5.51-2.13-1.7-.9-3.13-1.94-4.29-3.09l6.64-6.83c1.03,1.03,2.27,1.85,3.71,2.45,1.44.6,2.95.9,4.54.9.73,0,1.3-.1,1.71-.29.41-.19.61-.46.61-.81,0-.6-.35-1.05-1.06-1.35-.71-.3-1.61-.58-2.71-.84-1.1-.26-2.26-.59-3.48-1s-2.39-.97-3.51-1.68c-1.12-.71-2.02-1.7-2.71-2.97-.69-1.27-1.03-2.89-1.03-4.86s.57-3.81,1.71-5.38,2.75-2.81,4.83-3.74c2.08-.92,4.5-1.38,7.25-1.38s5.5.47,8.12,1.42c2.62.95,4.71,2.37,6.25,4.26l-6.7,6.83c-1.07-1.2-2.26-2.01-3.54-2.42-1.29-.41-2.37-.61-3.22-.61s-1.38.12-1.71.36-.49.52-.49.87c0,.47.34.86,1.03,1.16.68.3,1.58.58,2.67.84,1.1.26,2.24.6,3.45,1.03,1.2.43,2.35,1.03,3.45,1.8s1.99,1.79,2.67,3.06,1.03,2.91,1.03,4.93c0,3.14-1.25,5.63-3.74,7.48-2.49,1.85-5.85,2.77-10.05,2.77Z"/>
    <polygon class="cls-2" points="287.99 141.1 287.99 151.42 281.23 151.42 281.23 172.81 268.6 172.81 268.6 151.42 261.83 151.42 261.83 141.1 268.6 141.1 268.6 128.09 281.23 128.09 281.23 141.1 287.99 141.1"/>
  </g>
</svg>